<svg
    width="1134"
    height="1134"
    xmlns="http://www.w3.org/2000/svg"
    xmlns:xlink="http://www.w3.org/1999/xlink"
    overflow="hidden"
>

    <defs>
        <clipPath id="clip0">
            <path d="M866.053 676.003C854.829 675.656 843.472 679.591 834.643 687.89L706.761 808.105C689.104 824.704 688.246 852.474 704.845 870.132L864.508 1039.98C881.107 1057.64 908.877 1058.49 926.534 1041.89L1054.42 921.68C1072.07 905.081 1072.93 877.311 1056.33 859.653L896.669 689.807C888.37 680.979 877.278 676.35 866.053 676.003ZM918.782 177.268C909.902 177.268 902.704 184.466 902.704 193.346L902.704 381.254C902.704 390.134 909.902 397.332 918.782 397.332L983.093 397.332C991.972 397.332 999.171 390.134 999.171 381.254L999.171 193.346C999.171 184.466 991.972 177.268 983.093 177.268ZM-53-53 1187-53 1187 1187-53 1187Z" fill-rule="evenodd" clip-rule="evenodd"/>
        </clipPath>
    </defs>
    <g>
        <rect x="0" y="0" width="1134" height="1134" fill="#FFFFFF" fill-opacity="0"/>
        <g clip-path="url(#clip0)">

            <path d="M566.729 76.1667C295.791 76.1595 76.1479 295.791 76.1408 566.729 76.1337 837.666 295.765 1057.31 566.703 1057.32 837.64 1057.32 1057.28 837.692 1057.29 566.755 1057.29 566.738 1057.29 566.72 1057.29 566.703 1057.4 295.895 837.95 76.2739 567.142 76.1667 567.004 76.1665 566.867 76.1665 566.729 76.1667ZM617.491 831.482C612.028 844.256 601.849 854.435 589.075 859.898 582.504 862.694 575.432 864.118 568.292 864.083 554.036 864.11 540.353 858.475 530.252 848.415 525.38 843.534 521.483 837.771 518.769 831.43 515.96 824.854 514.531 817.772 514.571 810.621 514.536 796.357 520.178 782.667 530.252 772.569 551.138 751.628 585.046 751.583 605.986 772.469 606.02 772.503 606.052 772.535 606.086 772.569L606.086 772.569C610.985 777.486 614.885 783.308 617.569 789.709 620.367 796.325 621.795 803.438 621.767 810.621 621.783 817.786 620.328 824.877 617.491 831.456ZM663.1 604.665C627.817 625.941 606.026 663.933 605.479 705.131L527.979 705.131C528.44 637.269 563.934 574.463 621.831 539.061 670.367 508.636 685.048 444.626 654.623 396.091 624.198 347.555 560.188 332.874 511.652 363.299 481.379 382.276 463.004 415.498 463.021 451.228L385.521 451.228C385.483 351.142 466.587 269.976 566.673 269.939 666.758 269.901 747.925 351.005 747.963 451.091 747.986 513.468 715.928 571.472 663.1 604.639Z"/>
        </g>

        <path d="M745.404 860.283C733.437 847.553 734.056 827.532 746.786 815.565L838.982 728.896C851.712 716.929 871.733 717.548 883.7 730.278L1060.2 918.037C1072.17 930.767 1071.55 950.787 1058.82 962.754L966.624 1049.42C953.893 1061.39 933.873 1060.77 921.906 1048.04Z" fill-rule="evenodd"/>

        <path d="M919 89.167C919 83.5519 923.552 79 929.167 79L969.833 79C975.448 79 980 83.5519 980 89.167L980 373.833C980 379.448 975.448 384 969.833 384L929.167 384C923.552 384 919 379.448 919 373.833Z" fill-rule="evenodd"/>

        <path d="M1071.83 79C1077.45 79 1082 83.5519 1082 89.1669L1082 129.833C1082 135.448 1077.45 140 1071.83 140L831.167 140C825.552 140 821 135.448 821 129.833L821 89.1669C821 83.5519 825.552 79 831.167 79Z" fill-rule="evenodd"/>

    </g>


</svg>
